<svg width="73" height="72" viewBox="0 0 73 72" fill="none" xmlns="http://www.w3.org/2000/svg">
<path d="M31.9705 6.68871L17.0005 12.3287C13.5505 13.6187 10.7305 17.6987 10.7305 21.3587V43.6487C10.7305 47.1887 13.0705 51.8387 15.9205 53.9687L28.8205 63.5987C33.0505 66.7787 40.0105 66.7787 44.2405 63.5987L57.1405 53.9687C59.9905 51.8387 62.3305 47.1887 62.3305 43.6487V21.3587C62.3305 17.6687 59.5105 13.5887 56.0605 12.2987L41.0905 6.68871C38.5405 5.75871 34.4605 5.75871 31.9705 6.68871Z" stroke="#6A6F80" stroke-width="2" stroke-linecap="round" stroke-linejoin="round"/>
<path d="M36.5 37.5C39.8137 37.5 42.5 34.8137 42.5 31.5C42.5 28.1863 39.8137 25.5 36.5 25.5C33.1863 25.5 30.5 28.1863 30.5 31.5C30.5 34.8137 33.1863 37.5 36.5 37.5Z" stroke="#FB923C" stroke-width="2" stroke-miterlimit="10" stroke-linecap="round" stroke-linejoin="round"/>
<path d="M36.5 37.5V46.5" stroke="#FB923C" stroke-width="2" stroke-miterlimit="10" stroke-linecap="round" stroke-linejoin="round"/>
</svg>
